<svg xmlns="http://www.w3.org/2000/svg" xmlns:xlink="http://www.w3.org/1999/xlink" viewBox="0 0 2501 817" version="1.1" width="1000px" height="327px">
    <!-- Generator: Sketch 52.6 (67491) - http://www.bohemiancoding.com/sketch -->
    <title>google</title>
    <desc>Created with Sketch.</desc>
    <g id="Page-1" stroke="none" stroke-width="1" fill="none" fill-rule="evenodd" fill-color-id="-1" stroke-color-id="-1" recolor-fill="true" recolor-stroke="true">
        <g id="google" transform="translate(-4.000000, 0.000000)" fill-color-id="-1" stroke-color-id="-1" recolor-fill="true" recolor-stroke="true">
            <path d="M312.080537,0 L334.312081,0 C411.493289,1.67785235 487.416107,32.7181208 541.946309,87.6677852 C521.812081,108.221477 501.258389,127.936242 481.543624,148.489933 C450.922819,120.805369 414.010067,99.4127517 373.741611,91.8624161 C314.177852,79.2785235 250,90.6040268 200.083893,124.580537 C145.553691,160.234899 108.64094,220.637584 100.671141,285.234899 C91.8624161,348.993289 109.899329,416.107383 151.426174,465.604027 C191.275168,513.842282 252.097315,544.043624 315.016779,546.14094 C373.741611,549.496644 434.983221,531.459732 477.768456,490.352349 C511.325503,461.409396 526.845638,417.365772 531.879195,374.580537 C462.248322,374.580537 392.61745,375 322.986577,374.580537 L322.986577,288.171141 L616.191275,288.171141 C631.291946,380.872483 609.479866,485.318792 539.010067,551.59396 C492.030201,598.573826 427.013423,626.258389 360.738255,631.711409 C296.560403,638.003356 230.285235,625.838926 173.238255,594.798658 C104.865772,558.305369 50.3355705,496.644295 23.4899329,424.077181 C-1.67785235,357.38255 -2.09731544,281.879195 21.3926174,214.765101 C42.7852349,153.52349 83.8926174,99.4127517 136.744966,61.6610738 C187.5,24.3288591 249.161074,3.77516779 312.080537,0 Z" id="Path" fill="#d3d3d3" fill-color-id="0" stroke-color-id="-1" recolor-fill="true" recolor-stroke="true"/>
            <path d="M1994.12752,21.8120805 L2083.89262,21.8120805 L2083.89262,620.805369 C2054.11074,620.805369 2023.9094,621.224832 1994.12752,620.385906 C1994.54698,421.14094 1994.12752,221.47651 1994.12752,21.8120805 Z" id="Path" fill="#d3d3d3" fill-color-id="1" stroke-color-id="-1" recolor-fill="true" recolor-stroke="true"/>
            <path d="M815.855705,229.446309 C871.224832,218.959732 931.208054,230.704698 976.92953,263.842282 C1018.45638,293.204698 1047.39933,339.345638 1056.20805,389.681208 C1067.53356,447.986577 1053.27181,511.744966 1015.52013,557.885906 C974.832215,609.479866 908.137584,637.16443 843.120805,632.969799 C783.557047,629.614094 725.671141,599.832215 690.436242,551.174497 C650.587248,497.483221 640.939597,423.657718 662.751678,360.738255 C684.563758,293.204698 746.224832,241.610738 815.855705,229.446309 Z M828.439597,309.144295 C805.788591,315.016779 784.815436,328.020134 769.714765,346.47651 C729.026846,395.134228 731.543624,474.412752 776.426174,519.714765 C802.013423,545.721477 840.604027,557.885906 876.258389,550.755034 C909.395973,544.88255 938.338926,522.651007 954.278523,493.288591 C981.963087,443.372483 973.993289,374.580537 931.627517,335.57047 C904.362416,310.402685 864.513423,299.916107 828.439597,309.144295 Z" id="Shape" fill="#d3d3d3" fill-rule="nonzero" fill-color-id="2" stroke-color-id="-1" recolor-fill="true" recolor-stroke="true"/>
            <path d="M1260.48658,229.446309 C1323.8255,217.281879 1393.03691,234.899329 1440.43624,279.362416 C1517.61745,348.573826 1526.00671,478.187919 1460.15101,557.885906 C1420.30201,608.221477 1355.7047,635.90604 1291.94631,632.969799 C1231.12416,631.291946 1171.14094,601.090604 1135.06711,551.174497 C1094.37919,496.224832 1085.57047,420.721477 1108.64094,356.543624 C1131.71141,291.107383 1192.11409,241.191275 1260.48658,229.446309 Z M1273.07047,309.144295 C1250.41946,315.016779 1229.44631,328.020134 1214.34564,346.057047 C1174.07718,393.875839 1175.75503,471.895973 1218.95973,517.61745 C1244.54698,544.88255 1284.39597,558.305369 1321.30872,550.755034 C1354.02685,544.463087 1383.38926,522.651007 1399.32886,493.288591 C1426.59396,442.95302 1418.62416,374.161074 1375.83893,335.151007 C1348.57383,309.983221 1308.72483,299.916107 1273.07047,309.144295 Z" id="Shape" fill="#d3d3d3" fill-rule="nonzero" fill-color-id="3" stroke-color-id="-1" recolor-fill="true" recolor-stroke="true"/>
            <path d="M1637.58389,253.775168 C1685.82215,223.573826 1750,215.184564 1802.01342,241.191275 C1818.37248,248.322148 1831.7953,260.486577 1844.79866,272.651007 C1845.21812,261.325503 1844.79866,249.580537 1845.21812,237.83557 C1873.32215,238.255034 1901.42617,237.83557 1929.94966,238.255034 L1929.94966,608.221477 C1929.5302,664.010067 1915.26846,723.154362 1875,763.842282 C1830.95638,808.724832 1763.42282,822.567114 1702.60067,813.338926 C1637.58389,803.691275 1580.95638,756.291946 1555.78859,696.308725 C1580.95638,684.144295 1607.38255,674.496644 1633.38926,663.171141 C1648.07047,697.567114 1677.85235,726.92953 1715.18456,733.64094 C1752.51678,740.352349 1795.72148,731.124161 1820.05034,700.083893 C1846.05705,668.204698 1846.05705,624.580537 1844.79866,585.57047 C1825.50336,604.446309 1803.27181,621.224832 1776.42617,627.516779 C1718.12081,643.875839 1653.94295,623.741611 1609.0604,584.312081 C1563.75839,544.88255 1536.91275,484.060403 1539.42953,423.657718 C1540.68792,355.285235 1579.27852,289.42953 1637.58389,253.775168 Z M1724.41275,307.466443 C1698.8255,311.661074 1674.91611,325.922819 1658.55705,345.637584 C1619.12752,392.61745 1619.12752,467.701342 1658.97651,513.842282 C1681.62752,541.107383 1718.12081,556.208054 1753.3557,552.432886 C1786.49329,549.077181 1817.11409,528.104027 1833.47315,499.161074 C1861.15772,450.083893 1856.54362,383.389262 1819.21141,340.604027 C1796.14094,314.177852 1759.22819,301.174497 1724.41275,307.466443 Z" id="Shape" fill="#d3d3d3" fill-rule="nonzero" fill-color-id="0" stroke-color-id="-1" recolor-fill="true" recolor-stroke="true"/>
            <path d="M2191.69463,275.167785 C2242.0302,228.187919 2319.63087,212.248322 2384.22819,236.996644 C2445.4698,260.067114 2484.47987,318.372483 2504.19463,378.355705 C2413.17114,416.107383 2322.56711,453.439597 2231.54362,491.191275 C2244.12752,515.100671 2263.42282,536.912752 2289.42953,545.721477 C2325.92282,558.724832 2369.54698,554.110738 2400.16779,529.781879 C2412.33221,520.553691 2421.97987,508.389262 2431.20805,496.644295 C2454.27852,512.16443 2477.34899,527.265101 2500.41946,542.785235 C2467.70134,591.862416 2412.75168,626.258389 2353.60738,631.711409 C2288.17114,639.681208 2218.54027,614.513423 2176.1745,563.338926 C2106.54362,482.802013 2113.25503,347.734899 2191.69463,275.167785 Z M2236.57718,352.768456 C2222.31544,373.322148 2216.44295,398.489933 2216.86242,423.238255 C2277.68456,398.07047 2338.50671,372.902685 2399.32886,347.315436 C2389.26174,323.825503 2364.93289,309.563758 2340.18456,305.788591 C2300.33557,298.657718 2258.80872,320.050336 2236.57718,352.768456 Z" id="Shape" fill="#d3d3d3" fill-rule="nonzero" fill-color-id="2" stroke-color-id="-1" recolor-fill="true" recolor-stroke="true"/>
        </g>
    </g>
</svg>